<svg id="SvgjsSvg1006" width="665" height="415.5" xmlns="http://www.w3.org/2000/svg" version="1.1" xmlns:xlink="http://www.w3.org/1999/xlink" xmlns:svgjs="http://svgjs.com/svgjs"><defs id="SvgjsDefs1007"></defs><g id="SvgjsG1008" transform="translate(25,25)"><path id="SvgjsPath1009" d="M 0 0L 615.5 0L 615.5 65.5L 0 65.5Z" stroke="none" fill-opacity="1" fill="#ff8000"></path><g id="SvgjsG1010"><text id="SvgjsText1011" font-family="黑体" text-anchor="middle" font-size="19px" width="596px" fill="#ffffff" font-weight="700" align="middle" anchor="middle" family="黑体" size="19px" weight="700" font-style="" opacity="1" y="17.9" transform="rotate(0)"><tspan id="SvgjsTspan1012" dy="23" x="308"><tspan id="SvgjsTspan1013" style="text-decoration:;">埋点的生命周期</tspan></tspan></text></g></g><g id="SvgjsG1014" transform="translate(178.5,124.5)"><path id="SvgjsPath1015" d="M 0 0L 155 0L 155 66L 0 66Z" stroke="none" fill-opacity="1" fill="#8a8a8a"></path><g id="SvgjsG1016"><text id="SvgjsText1017" font-family="黑体" text-anchor="middle" font-size="15px" width="135px" fill="#ffffff" font-weight="700" align="middle" anchor="middle" family="黑体" size="15px" weight="700" font-style="" opacity="1" y="21.25" transform="rotate(0)"><tspan id="SvgjsTspan1018" dy="18" x="77.5"><tspan id="SvgjsTspan1019" style="text-decoration:;">数据需求池</tspan></tspan></text></g></g><g id="SvgjsG1020" transform="translate(333.5,124.5)"><path id="SvgjsPath1021" d="M 0 0L 150.5 0L 150.5 66L 0 66Z" stroke="none" fill-opacity="1" fill="#a1a1a1"></path><g id="SvgjsG1022"><text id="SvgjsText1023" font-family="黑体" text-anchor="middle" font-size="15px" width="131px" fill="#ffffff" font-weight="700" align="middle" anchor="middle" family="黑体" size="15px" weight="700" font-style="" opacity="1" y="21.25" transform="rotate(0)"><tspan id="SvgjsTspan1024" dy="18" x="75.5"><tspan id="SvgjsTspan1025" style="text-decoration:;">产品信息架构</tspan></tspan></text></g></g><g id="SvgjsG1026" transform="translate(484,124.5)"><path id="SvgjsPath1027" d="M 0 0L 156.5 0L 156.5 66L 0 66Z" stroke="none" fill-opacity="1" fill="#8a8a8a"></path><g id="SvgjsG1028"><text id="SvgjsText1029" font-family="黑体" text-anchor="middle" font-size="15px" width="137px" fill="#ffffff" font-weight="700" align="middle" anchor="middle" family="黑体" size="15px" weight="700" font-style="" opacity="1" y="21.25" transform="rotate(0)"><tspan id="SvgjsTspan1030" dy="18" x="78.5"><tspan id="SvgjsTspan1031" style="text-decoration:;">用户行为路径</tspan></tspan></text></g></g><g id="SvgjsG1032" transform="translate(178.5,224.5)"><path id="SvgjsPath1033" d="M 0 0L 115.5 0L 115.5 66L 0 66Z" stroke="none" fill-opacity="1" fill="#8a8a8a"></path><g id="SvgjsG1034"><text id="SvgjsText1035" font-family="黑体" text-anchor="middle" font-size="15px" width="96px" fill="#ffffff" font-weight="700" align="middle" anchor="middle" family="黑体" size="15px" weight="700" font-style="" opacity="1" y="21.25" transform="rotate(0)"><tspan id="SvgjsTspan1036" dy="18" x="58"><tspan id="SvgjsTspan1037" style="text-decoration:;">埋点版本规划</tspan></tspan></text></g></g><g id="SvgjsG1038" transform="translate(294,224.5)"><path id="SvgjsPath1039" d="M 0 0L 115.5 0L 115.5 66L 0 66Z" stroke="none" fill-opacity="1" fill="#a1a1a1"></path><g id="SvgjsG1040"><text id="SvgjsText1041" font-family="黑体" text-anchor="middle" font-size="15px" width="96px" fill="#ffffff" font-weight="700" align="middle" anchor="middle" family="黑体" size="15px" weight="700" font-style="" opacity="1" y="21.25" transform="rotate(0)"><tspan id="SvgjsTspan1042" dy="18" x="58"><tspan id="SvgjsTspan1043" style="text-decoration:;">埋点文档</tspan></tspan></text></g></g><g id="SvgjsG1044" transform="translate(409.5,224.5)"><path id="SvgjsPath1045" d="M 0 0L 115.5 0L 115.5 66L 0 66Z" stroke="none" fill-opacity="1" fill="#8a8a8a"></path><g id="SvgjsG1046"><text id="SvgjsText1047" font-family="黑体" text-anchor="middle" font-size="15px" width="96px" fill="#ffffff" font-weight="700" align="middle" anchor="middle" family="黑体" size="15px" weight="700" font-style="" opacity="1" y="21.25" transform="rotate(0)"><tspan id="SvgjsTspan1048" dy="18" x="58"><tspan id="SvgjsTspan1049" style="text-decoration:;">数据流程图</tspan></tspan></text></g></g><g id="SvgjsG1050" transform="translate(525,224.5)"><path id="SvgjsPath1051" d="M 0 0L 115.5 0L 115.5 66L 0 66Z" stroke="none" fill-opacity="1" fill="#a1a1a1"></path><g id="SvgjsG1052"><text id="SvgjsText1053" font-family="黑体" text-anchor="middle" font-size="15px" width="96px" fill="#ffffff" font-weight="700" align="middle" anchor="middle" family="黑体" size="15px" weight="700" font-style="" opacity="1" y="21.25" transform="rotate(0)"><tspan id="SvgjsTspan1054" dy="18" x="58"><tspan id="SvgjsTspan1055" style="text-decoration:;">后台原型设计</tspan></tspan></text></g></g><g id="SvgjsG1056" transform="translate(178.5,324.5)"><path id="SvgjsPath1057" d="M 0 0L 155 0L 155 66L 0 66Z" stroke="none" fill-opacity="1" fill="#8a8a8a"></path><g id="SvgjsG1058"><text id="SvgjsText1059" font-family="黑体" text-anchor="middle" font-size="15px" width="135px" fill="#ffffff" font-weight="700" align="middle" anchor="middle" family="黑体" size="15px" weight="700" font-style="" opacity="1" y="21.25" transform="rotate(0)"><tspan id="SvgjsTspan1060" dy="18" x="77.5"><tspan id="SvgjsTspan1061" style="text-decoration:;">数据准确性验证</tspan></tspan></text></g></g><g id="SvgjsG1062" transform="translate(333.5,324.5)"><path id="SvgjsPath1063" d="M 0 0L 150.5 0L 150.5 66L 0 66Z" stroke="none" fill-opacity="1" fill="#a1a1a1"></path><g id="SvgjsG1064"><text id="SvgjsText1065" font-family="黑体" text-anchor="middle" font-size="15px" width="131px" fill="#ffffff" font-weight="700" align="middle" anchor="middle" family="黑体" size="15px" weight="700" font-style="" opacity="1" y="21.25" transform="rotate(0)"><tspan id="SvgjsTspan1066" dy="18" x="75.5"><tspan id="SvgjsTspan1067" style="text-decoration:;">数据监控</tspan></tspan></text></g></g><g id="SvgjsG1068" transform="translate(484,324.5)"><path id="SvgjsPath1069" d="M 0 0L 156.5 0L 156.5 66L 0 66Z" stroke="none" fill-opacity="1" fill="#8a8a8a"></path><g id="SvgjsG1070"><text id="SvgjsText1071" font-family="黑体" text-anchor="middle" font-size="15px" width="137px" fill="#ffffff" font-weight="700" align="middle" anchor="middle" family="黑体" size="15px" weight="700" font-style="" opacity="1" y="21.25" transform="rotate(0)"><tspan id="SvgjsTspan1072" dy="18" x="78.5"><tspan id="SvgjsTspan1073" style="text-decoration:;">埋点规划下线</tspan></tspan></text></g></g><g id="SvgjsG1074" transform="translate(292.5,198.5)"><path id="SvgjsPath1075" d="M 76.72500000000001 0L 155.775 0L 155.775 11L 232.5 11L 116.25 20L 0 11L 76.72500000000001 11L 76.72500000000001 0Z" stroke="none" fill-opacity="1" fill="#b8b8b8"></path><g id="SvgjsG1076"><text id="SvgjsText1077" font-family="微软雅黑" text-anchor="middle" font-size="13px" width="326px" fill="#ffffff" font-weight="700" align="middle" anchor="middle" family="微软雅黑" size="13px" weight="700" font-style="" opacity="1" y="-0.9499999999999991" transform="rotate(0)"></text></g></g><g id="SvgjsG1078" transform="translate(292.5,299.5)"><path id="SvgjsPath1079" d="M 76.72500000000001 0L 155.775 0L 155.775 11L 232.5 11L 116.25 20L 0 11L 76.72500000000001 11L 76.72500000000001 0Z" stroke="none" fill-opacity="1" fill="#b8b8b8"></path><g id="SvgjsG1080"><text id="SvgjsText1081" font-family="微软雅黑" text-anchor="middle" font-size="13px" width="326px" fill="#ffffff" font-weight="700" align="middle" anchor="middle" family="微软雅黑" size="13px" weight="700" font-style="" opacity="1" y="-0.9499999999999991" transform="rotate(0)"></text></g></g><g id="SvgjsG1082" transform="translate(25,224.5)"><path id="SvgjsPath1083" d="M 0 0L 136 0L 136 66L 0 66Z" stroke="none" fill-opacity="1" fill="#ff8000"></path><g id="SvgjsG1084"><text id="SvgjsText1085" font-family="黑体" text-anchor="middle" font-size="16px" width="116px" fill="#ffffff" font-weight="700" align="middle" anchor="middle" family="黑体" size="16px" weight="700" font-style="" opacity="1" y="20.6" transform="rotate(0)"><tspan id="SvgjsTspan1086" dy="20" x="68"><tspan id="SvgjsTspan1087" style="text-decoration:;">设计阶段</tspan></tspan></text></g></g><g id="SvgjsG1088" transform="translate(25,324.5)"><path id="SvgjsPath1089" d="M 0 0L 136 0L 136 66L 0 66Z" stroke="none" fill-opacity="1" fill="#ff8000"></path><g id="SvgjsG1090"><text id="SvgjsText1091" font-family="黑体" text-anchor="middle" font-size="16px" width="116px" fill="#ffffff" font-weight="700" align="middle" anchor="middle" family="黑体" size="16px" weight="700" font-style="" opacity="1" y="20.6" transform="rotate(0)"><tspan id="SvgjsTspan1092" dy="20" x="68"><tspan id="SvgjsTspan1093" style="text-decoration:;">质量管理阶段</tspan></tspan></text></g></g><g id="SvgjsG1094" transform="translate(25,124.5)"><path id="SvgjsPath1095" d="M 0 0L 136 0L 136 66L 0 66Z" stroke="none" fill-opacity="1" fill="#ff8000"></path><g id="SvgjsG1096"><text id="SvgjsText1097" font-family="黑体" text-anchor="middle" font-size="16px" width="116px" fill="#ffffff" font-weight="700" align="middle" anchor="middle" family="黑体" size="16px" weight="700" font-style="" opacity="1" y="20.6" transform="rotate(0)"><tspan id="SvgjsTspan1098" dy="20" x="68"><tspan id="SvgjsTspan1099" style="text-decoration:;">需求阶段</tspan></tspan></text></g></g></svg>