<svg id="SvgjsSvg1441" width="666" height="415.5" xmlns="http://www.w3.org/2000/svg" version="1.1" xmlns:xlink="http://www.w3.org/1999/xlink" xmlns:svgjs="http://svgjs.com/svgjs"><defs id="SvgjsDefs1442"></defs><g id="SvgjsG1443" transform="translate(25,25)"><path id="SvgjsPath1444" d="M 0 0L 615.5 0L 615.5 65.5L 0 65.5Z" stroke="none" fill-opacity="1" fill="#ffff00"></path><g id="SvgjsG1445"><text id="SvgjsText1446" font-family="黑体" text-anchor="middle" font-size="19px" width="596px" fill="#737373" font-weight="700" align="middle" anchor="middle" family="黑体" size="19px" weight="700" font-style="" opacity="1" y="17.9" transform="rotate(0)"><tspan id="SvgjsTspan1447" dy="23" x="308"><tspan id="SvgjsTspan1448" style="text-decoration:;">数据的生命周期</tspan></tspan></text></g></g><g id="SvgjsG1449" transform="translate(178.5,124.5)"><path id="SvgjsPath1450" d="M 0 0L 115.5 0L 115.5 66L 0 66Z" stroke="none" fill-opacity="1" fill="#8a8a8a"></path><g id="SvgjsG1451"><text id="SvgjsText1452" font-family="黑体" text-anchor="middle" font-size="15px" width="96px" fill="#ffffff" font-weight="700" align="middle" anchor="middle" family="黑体" size="15px" weight="700" font-style="" opacity="1" y="21.25" transform="rotate(0)"><tspan id="SvgjsTspan1453" dy="18" x="58"><tspan id="SvgjsTspan1454" style="text-decoration:;">埋点行为数据</tspan></tspan></text></g></g><g id="SvgjsG1455" transform="translate(294,124.5)"><path id="SvgjsPath1456" d="M 0 0L 115.5 0L 115.5 66L 0 66Z" stroke="none" fill-opacity="1" fill="#a1a1a1"></path><g id="SvgjsG1457"><text id="SvgjsText1458" font-family="黑体" text-anchor="middle" font-size="15px" width="96px" fill="#ffffff" font-weight="700" align="middle" anchor="middle" family="黑体" size="15px" weight="700" font-style="" opacity="1" y="21.25" transform="rotate(0)"><tspan id="SvgjsTspan1459" dy="18" x="58"><tspan id="SvgjsTspan1460" style="text-decoration:;">业务数据</tspan></tspan></text></g></g><g id="SvgjsG1461" transform="translate(409.5,124.5)"><path id="SvgjsPath1462" d="M 0 0L 115.5 0L 115.5 66L 0 66Z" stroke="none" fill-opacity="1" fill="#8a8a8a"></path><g id="SvgjsG1463"><text id="SvgjsText1464" font-family="黑体" text-anchor="middle" font-size="15px" width="96px" fill="#ffffff" font-weight="700" align="middle" anchor="middle" family="黑体" size="15px" weight="700" font-style="" opacity="1" y="21.25" transform="rotate(0)"><tspan id="SvgjsTspan1465" dy="18" x="58"><tspan id="SvgjsTspan1466" style="text-decoration:;">日志数据</tspan></tspan></text></g></g><g id="SvgjsG1467" transform="translate(525,124.5)"><path id="SvgjsPath1468" d="M 0 0L 115.5 0L 115.5 66L 0 66Z" stroke="none" fill-opacity="1" fill="#a1a1a1"></path><g id="SvgjsG1469"><text id="SvgjsText1470" font-family="黑体" text-anchor="middle" font-size="15px" width="96px" fill="#ffffff" font-weight="700" align="middle" anchor="middle" family="黑体" size="15px" weight="700" font-style="" opacity="1" y="21.25" transform="rotate(0)"><tspan id="SvgjsTspan1471" dy="18" x="58"><tspan id="SvgjsTspan1472" style="text-decoration:;">外部接入数据</tspan></tspan></text></g></g><g id="SvgjsG1473" transform="translate(178.5,224.5)"><path id="SvgjsPath1474" d="M 0 0L 115.5 0L 115.5 66L 0 66Z" stroke="none" fill-opacity="1" fill="#8a8a8a"></path><g id="SvgjsG1475"><text id="SvgjsText1476" font-family="黑体" text-anchor="middle" font-size="15px" width="96px" fill="#ffffff" font-weight="700" align="middle" anchor="middle" family="黑体" size="15px" weight="700" font-style="" opacity="1" y="21.25" transform="rotate(0)"><tspan id="SvgjsTspan1477" dy="18" x="58"><tspan id="SvgjsTspan1478" style="text-decoration:;">算法模型</tspan></tspan></text></g></g><g id="SvgjsG1479" transform="translate(294,224.5)"><path id="SvgjsPath1480" d="M 0 0L 115.5 0L 115.5 66L 0 66Z" stroke="none" fill-opacity="1" fill="#a1a1a1"></path><g id="SvgjsG1481"><text id="SvgjsText1482" font-family="黑体" text-anchor="middle" font-size="15px" width="96px" fill="#ffffff" font-weight="700" align="middle" anchor="middle" family="黑体" size="15px" weight="700" font-style="" opacity="1" y="21.25" transform="rotate(0)"><tspan id="SvgjsTspan1483" dy="18" x="58"><tspan id="SvgjsTspan1484" style="text-decoration:;">机器学习</tspan></tspan></text></g></g><g id="SvgjsG1485" transform="translate(409.5,224.5)"><path id="SvgjsPath1486" d="M 0 0L 115.5 0L 115.5 66L 0 66Z" stroke="none" fill-opacity="1" fill="#8a8a8a"></path><g id="SvgjsG1487"><text id="SvgjsText1488" font-family="黑体" text-anchor="middle" font-size="15px" width="96px" fill="#ffffff" font-weight="700" align="middle" anchor="middle" family="黑体" size="15px" weight="700" font-style="" opacity="1" y="21.25" transform="rotate(0)"><tspan id="SvgjsTspan1489" dy="18" x="58"><tspan id="SvgjsTspan1490" style="text-decoration:;">数据指标</tspan></tspan></text></g></g><g id="SvgjsG1491" transform="translate(525,224.5)"><path id="SvgjsPath1492" d="M 0 0L 115.5 0L 115.5 66L 0 66Z" stroke="none" fill-opacity="1" fill="#a1a1a1"></path><g id="SvgjsG1493"><text id="SvgjsText1494" font-family="黑体" text-anchor="middle" font-size="15px" width="96px" fill="#ffffff" font-weight="700" align="middle" anchor="middle" family="黑体" size="15px" weight="700" font-style="" opacity="1" y="21.25" transform="rotate(0)"><tspan id="SvgjsTspan1495" dy="18" x="58"><tspan id="SvgjsTspan1496" style="text-decoration:;">数据分析</tspan></tspan></text></g></g><g id="SvgjsG1497" transform="translate(178.5,324.5)"><path id="SvgjsPath1498" d="M 0 0L 115.5 0L 115.5 66L 0 66Z" stroke="none" fill-opacity="1" fill="#8a8a8a"></path><g id="SvgjsG1499"><text id="SvgjsText1500" font-family="黑体" text-anchor="middle" font-size="15px" width="96px" fill="#ffffff" font-weight="700" align="middle" anchor="middle" family="黑体" size="15px" weight="700" font-style="" opacity="1" y="21.25" transform="rotate(0)"><tspan id="SvgjsTspan1501" dy="18" x="58"><tspan id="SvgjsTspan1502" style="text-decoration:;">数据可视化</tspan></tspan></text></g></g><g id="SvgjsG1503" transform="translate(294,324.5)"><path id="SvgjsPath1504" d="M 0 0L 115.5 0L 115.5 66L 0 66Z" stroke="none" fill-opacity="1" fill="#a1a1a1"></path><g id="SvgjsG1505"><text id="SvgjsText1506" font-family="黑体" text-anchor="middle" font-size="15px" width="96px" fill="#ffffff" font-weight="700" align="middle" anchor="middle" family="黑体" size="15px" weight="700" font-style="" opacity="1" y="21.25" transform="rotate(0)"><tspan id="SvgjsTspan1507" dy="18" x="58"><tspan id="SvgjsTspan1508" style="text-decoration:;">用户画像</tspan></tspan></text></g></g><g id="SvgjsG1509" transform="translate(409.5,324.5)"><path id="SvgjsPath1510" d="M 0 0L 115.5 0L 115.5 66L 0 66Z" stroke="none" fill-opacity="1" fill="#8a8a8a"></path><g id="SvgjsG1511"><text id="SvgjsText1512" font-family="黑体" text-anchor="middle" font-size="15px" width="96px" fill="#ffffff" font-weight="700" align="middle" anchor="middle" family="黑体" size="15px" weight="700" font-style="" opacity="1" y="21.25" transform="rotate(0)"><tspan id="SvgjsTspan1513" dy="18" x="58"><tspan id="SvgjsTspan1514" style="text-decoration:;">个性化推荐</tspan></tspan></text></g></g><g id="SvgjsG1515" transform="translate(525,324.5)"><path id="SvgjsPath1516" d="M 0 0L 115.5 0L 115.5 66L 0 66Z" stroke="none" fill-opacity="1" fill="#a1a1a1"></path><g id="SvgjsG1517"><text id="SvgjsText1518" font-family="黑体" text-anchor="middle" font-size="15px" width="96px" fill="#ffffff" font-weight="700" align="middle" anchor="middle" family="黑体" size="15px" weight="700" font-style="" opacity="1" y="21.25" transform="rotate(0)"><tspan id="SvgjsTspan1519" dy="18" x="58"><tspan id="SvgjsTspan1520" style="text-decoration:;">数据策略</tspan></tspan></text></g></g><g id="SvgjsG1521" transform="translate(292.5,198.5)"><path id="SvgjsPath1522" d="M 76.72500000000001 0L 155.775 0L 155.775 11L 232.5 11L 116.25 20L 0 11L 76.72500000000001 11L 76.72500000000001 0Z" stroke="none" fill-opacity="1" fill="#b8b8b8"></path><g id="SvgjsG1523"><text id="SvgjsText1524" font-family="微软雅黑" text-anchor="middle" font-size="13px" width="326px" fill="#ffffff" font-weight="700" align="middle" anchor="middle" family="微软雅黑" size="13px" weight="700" font-style="" opacity="1" y="-0.9499999999999991" transform="rotate(0)"><tspan id="SvgjsTspan1525" dy="16" x="116.5"><tspan id="SvgjsTspan1526" style="text-decoration:;">ETL预处理</tspan></tspan></text></g></g><g id="SvgjsG1527" transform="translate(292.5,299.5)"><path id="SvgjsPath1528" d="M 76.72500000000001 0L 155.775 0L 155.775 11L 232.5 11L 116.25 20L 0 11L 76.72500000000001 11L 76.72500000000001 0Z" stroke="none" fill-opacity="1" fill="#b8b8b8"></path><g id="SvgjsG1529"><text id="SvgjsText1530" font-family="微软雅黑" text-anchor="middle" font-size="13px" width="326px" fill="#ffffff" font-weight="700" align="middle" anchor="middle" family="微软雅黑" size="13px" weight="700" font-style="" opacity="1" y="-0.9499999999999991" transform="rotate(0)"></text></g></g><g id="SvgjsG1531" transform="translate(25,224.5)"><path id="SvgjsPath1532" d="M 0 0L 136 0L 136 66L 0 66Z" stroke="none" fill-opacity="1" fill="#ffff00"></path><g id="SvgjsG1533"><text id="SvgjsText1534" font-family="黑体" text-anchor="middle" font-size="16px" width="116px" fill="#737373" font-weight="700" align="middle" anchor="middle" family="黑体" size="16px" weight="700" font-style="" opacity="1" y="20.6" transform="rotate(0)"><tspan id="SvgjsTspan1535" dy="20" x="68"><tspan id="SvgjsTspan1536" style="text-decoration:;">数据挖掘/分析</tspan></tspan></text></g></g><g id="SvgjsG1537" transform="translate(25,324.5)"><path id="SvgjsPath1538" d="M 0 0L 136 0L 136 66L 0 66Z" stroke="none" fill-opacity="1" fill="#ffff00"></path><g id="SvgjsG1539"><text id="SvgjsText1540" font-family="黑体" text-anchor="middle" font-size="16px" width="116px" fill="#737373" font-weight="700" align="middle" anchor="middle" family="黑体" size="16px" weight="700" font-style="" opacity="1" y="20.6" transform="rotate(0)"><tspan id="SvgjsTspan1541" dy="20" x="68"><tspan id="SvgjsTspan1542" style="text-decoration:;">数据应用</tspan></tspan></text></g></g><g id="SvgjsG1543" transform="translate(25,124.5)"><path id="SvgjsPath1544" d="M 0 0L 136 0L 136 66L 0 66Z" stroke="none" fill-opacity="1" fill="#ffff00"></path><g id="SvgjsG1545"><text id="SvgjsText1546" font-family="黑体" text-anchor="middle" font-size="16px" width="116px" fill="#737373" font-weight="700" align="middle" anchor="middle" family="黑体" size="16px" weight="700" font-style="" opacity="1" y="20.6" transform="rotate(0)"><tspan id="SvgjsTspan1547" dy="20" x="68"><tspan id="SvgjsTspan1548" style="text-decoration:;">数据采集</tspan></tspan></text></g></g></svg>