<svg id="SvgjsSvg1080" width="430" height="120" xmlns="http://www.w3.org/2000/svg" version="1.1" xmlns:xlink="http://www.w3.org/1999/xlink" xmlns:svgjs="http://svgjs.com/svgjs"><defs id="SvgjsDefs1081"></defs><g id="SvgjsG1082" transform="translate(25,25)"><path id="SvgjsPath1083" d="M 0 0L 100 0L 100 70L 0 70Z" stroke="none" fill-opacity="1" fill="#00994d"></path><g id="SvgjsG1084"><text id="SvgjsText1085" font-family="黑体" text-anchor="middle" font-size="16px" width="80px" fill="#ffffff" font-weight="700" align="middle" anchor="middle" family="黑体" size="16px" weight="700" font-style="" opacity="1" y="22.6" transform="rotate(0)"><tspan id="SvgjsTspan1086" dy="20" x="50"><tspan id="SvgjsTspan1087" style="text-decoration:;">用户操作</tspan></tspan></text></g></g><g id="SvgjsG1088" transform="translate(135,35.5)"><path id="SvgjsPath1089" d="M 0 16.17L 11 16.17L 11 0L 20 24.5L 11 49L 11 32.830000000000005L 0 32.830000000000005L 0 16.17Z" stroke="none" fill-opacity="1" fill="#00cccc"></path><g id="SvgjsG1090"><text id="SvgjsText1091" font-family="微软雅黑" text-anchor="middle" font-size="13px" width="20px" fill="#323232" font-weight="400" align="middle" anchor="middle" family="微软雅黑" size="13px" weight="400" font-style="" opacity="1" y="14.55" transform="rotate(0)"></text></g></g><g id="SvgjsG1092" transform="translate(165,25)"><path id="SvgjsPath1093" d="M 0 0L 100 0L 100 70L 0 70Z" stroke="none" fill-opacity="1" fill="#00994d"></path><g id="SvgjsG1094"><text id="SvgjsText1095" font-family="黑体" text-anchor="middle" font-size="16px" width="80px" fill="#ffffff" font-weight="700" align="middle" anchor="middle" family="黑体" size="16px" weight="700" font-style="" opacity="1" y="22.6" transform="rotate(0)"><tspan id="SvgjsTspan1096" dy="20" x="50"><tspan id="SvgjsTspan1097" style="text-decoration:;"> 行为分析</tspan></tspan></text></g></g><g id="SvgjsG1098" transform="translate(305,25)"><path id="SvgjsPath1099" d="M 0 0L 100 0L 100 70L 0 70Z" stroke="none" fill-opacity="1" fill="#00994d"></path><g id="SvgjsG1100"><text id="SvgjsText1101" font-family="黑体" text-anchor="middle" font-size="16px" width="80px" fill="#ffffff" font-weight="700" align="middle" anchor="middle" family="黑体" size="16px" weight="700" font-style="" opacity="1" y="22.6" transform="rotate(0)"><tspan id="SvgjsTspan1102" dy="20" x="50"><tspan id="SvgjsTspan1103" style="text-decoration:;">推断结论</tspan></tspan></text></g></g><g id="SvgjsG1104" transform="translate(275,35.5)"><path id="SvgjsPath1105" d="M 0 16.17L 11 16.17L 11 0L 20 24.5L 11 49L 11 32.830000000000005L 0 32.830000000000005L 0 16.17Z" stroke="none" fill-opacity="1" fill="#00cccc"></path><g id="SvgjsG1106"><text id="SvgjsText1107" font-family="微软雅黑" text-anchor="middle" font-size="13px" width="20px" fill="#323232" font-weight="400" align="middle" anchor="middle" family="微软雅黑" size="13px" weight="400" font-style="" opacity="1" y="14.55" transform="rotate(0)"></text></g></g></svg>