<svg id="SvgjsSvg1056" width="450" height="160" xmlns="http://www.w3.org/2000/svg" version="1.1" xmlns:xlink="http://www.w3.org/1999/xlink" xmlns:svgjs="http://svgjs.com/svgjs"><defs id="SvgjsDefs1057"></defs><g id="SvgjsG1058" transform="translate(35,65)"><path id="SvgjsPath1059" d="M 0 0L 100 0L 100 70L 0 70Z" stroke="none" fill-opacity="1" fill="#999900"></path><g id="SvgjsG1060"><text id="SvgjsText1061" font-family="黑体" text-anchor="middle" font-size="16px" width="80px" fill="#ffffff" font-weight="700" align="middle" anchor="middle" family="黑体" size="16px" weight="700" font-style="" opacity="1" y="22.6" transform="rotate(0)"><tspan id="SvgjsTspan1062" dy="20" x="50"><tspan id="SvgjsTspan1063" style="text-decoration:;">需求</tspan></tspan></text></g></g><g id="SvgjsG1064" transform="translate(145,75.5)"><path id="SvgjsPath1065" d="M 0 16.17L 11 16.17L 11 0L 20 24.5L 11 49L 11 32.830000000000005L 0 32.830000000000005L 0 16.17Z" stroke="none" fill-opacity="1" fill="#ff8000"></path><g id="SvgjsG1066"><text id="SvgjsText1067" font-family="微软雅黑" text-anchor="middle" font-size="13px" width="20px" fill="#323232" font-weight="400" align="middle" anchor="middle" family="微软雅黑" size="13px" weight="400" font-style="" opacity="1" y="14.55" transform="rotate(0)"></text></g></g><g id="SvgjsG1068" transform="translate(175,65)"><path id="SvgjsPath1069" d="M 0 0L 100 0L 100 70L 0 70Z" stroke="none" fill-opacity="1" fill="#999900"></path><g id="SvgjsG1070"><text id="SvgjsText1071" font-family="微软雅黑" text-anchor="middle" font-size="16px" width="80px" fill="#ffffff" font-weight="700" align="middle" anchor="middle" family="微软雅黑" size="16px" weight="700" font-style="" opacity="1" y="22.6" transform="rotate(0)"><tspan id="SvgjsTspan1072" dy="20" x="50"><tspan id="SvgjsTspan1073" style="text-decoration:;">指标</tspan></tspan></text></g></g><g id="SvgjsG1074" transform="translate(315,65)"><path id="SvgjsPath1075" d="M 0 0L 100 0L 100 70L 0 70Z" stroke="none" fill-opacity="1" fill="#999900"></path><g id="SvgjsG1076"><text id="SvgjsText1077" font-family="微软雅黑" text-anchor="middle" font-size="16px" width="80px" fill="#ffffff" font-weight="700" align="middle" anchor="middle" family="微软雅黑" size="16px" weight="700" font-style="" opacity="1" y="22.6" transform="rotate(0)"><tspan id="SvgjsTspan1078" dy="20" x="50"><tspan id="SvgjsTspan1079" style="text-decoration:;">埋点</tspan></tspan></text></g></g><g id="SvgjsG1080" transform="translate(25,25)"><path id="SvgjsPath1081" d="M 0 0L 120 0L 120 40L 0 40Z" stroke="none" fill="none"></path><g id="SvgjsG1082"><text id="SvgjsText1083" font-family="微软雅黑" text-anchor="middle" font-size="15px" width="120px" fill="#666600" font-weight="700" align="middle" anchor="middle" family="微软雅黑" size="15px" weight="700" font-style="" opacity="1" y="8.25" transform="rotate(0)"><tspan id="SvgjsTspan1084" dy="18" x="60"><tspan id="SvgjsTspan1085" style="text-decoration:;">归纳分析</tspan></tspan></text></g></g><g id="SvgjsG1086" transform="translate(165,25)"><path id="SvgjsPath1087" d="M 0 0L 120 0L 120 40L 0 40Z" stroke="none" fill="none"></path><g id="SvgjsG1088"><text id="SvgjsText1089" font-family="微软雅黑" text-anchor="middle" font-size="15px" width="120px" fill="#666600" font-weight="700" align="middle" anchor="middle" family="微软雅黑" size="15px" weight="700" font-style="" opacity="1" y="8.25" transform="rotate(0)"><tspan id="SvgjsTspan1090" dy="18" x="60"><tspan id="SvgjsTspan1091" style="text-decoration:;">选取衡量</tspan></tspan></text></g></g><g id="SvgjsG1092" transform="translate(305,25)"><path id="SvgjsPath1093" d="M 0 0L 120 0L 120 40L 0 40Z" stroke="none" fill="none"></path><g id="SvgjsG1094"><text id="SvgjsText1095" font-family="微软雅黑" text-anchor="middle" font-size="15px" width="120px" fill="#666600" font-weight="700" align="middle" anchor="middle" family="微软雅黑" size="15px" weight="700" font-style="" opacity="1" y="8.25" transform="rotate(0)"><tspan id="SvgjsTspan1096" dy="18" x="60"><tspan id="SvgjsTspan1097" style="text-decoration:;">拆解梳理</tspan></tspan></text></g></g><g id="SvgjsG1098" transform="translate(285,75.5)"><path id="SvgjsPath1099" d="M 0 16.17L 11 16.17L 11 0L 20 24.5L 11 49L 11 32.830000000000005L 0 32.830000000000005L 0 16.17Z" stroke="none" fill-opacity="1" fill="#ff8000"></path><g id="SvgjsG1100"><text id="SvgjsText1101" font-family="微软雅黑" text-anchor="middle" font-size="13px" width="20px" fill="#323232" font-weight="400" align="middle" anchor="middle" family="微软雅黑" size="13px" weight="400" font-style="" opacity="1" y="14.55" transform="rotate(0)"></text></g></g></svg>