<svg id="SvgjsSvg1006" width="450" height="160" xmlns="http://www.w3.org/2000/svg" version="1.1" xmlns:xlink="http://www.w3.org/1999/xlink" xmlns:svgjs="http://svgjs.com/svgjs"><defs id="SvgjsDefs1007"></defs><g id="SvgjsG1008" transform="translate(35,65)"><path id="SvgjsPath1009" d="M 0 0L 100 0L 100 70L 0 70Z" stroke="none" fill-opacity="1" fill="#999900"></path><g id="SvgjsG1010"><text id="SvgjsText1011" font-family="黑体" text-anchor="middle" font-size="18px" width="80px" fill="#ffffff" font-weight="700" align="middle" anchor="middle" family="黑体" size="18px" weight="700" font-style="" opacity="1" y="20.8" transform="rotate(0)"><tspan id="SvgjsTspan1012" dy="22" x="50"><tspan id="SvgjsTspan1013" style="text-decoration:;">需求</tspan></tspan></text></g></g><g id="SvgjsG1014" transform="translate(145,75.5)"><path id="SvgjsPath1015" d="M 0 16.17L 11 16.17L 11 0L 20 24.5L 11 49L 11 32.830000000000005L 0 32.830000000000005L 0 16.17Z" stroke="none" fill-opacity="1" fill="#ff8000"></path><g id="SvgjsG1016"><text id="SvgjsText1017" font-family="微软雅黑" text-anchor="middle" font-size="13px" width="20px" fill="#323232" font-weight="400" align="middle" anchor="middle" family="微软雅黑" size="13px" weight="400" font-style="" opacity="1" y="14.55" transform="rotate(0)"></text></g></g><g id="SvgjsG1018" transform="translate(175,65)"><path id="SvgjsPath1019" d="M 0 0L 100 0L 100 70L 0 70Z" stroke="none" fill-opacity="1" fill="#999900"></path><g id="SvgjsG1020"><text id="SvgjsText1021" font-family="黑体" text-anchor="middle" font-size="18px" width="80px" fill="#ffffff" font-weight="700" align="middle" anchor="middle" family="黑体" size="18px" weight="700" font-style="" opacity="1" y="20.8" transform="rotate(0)"><tspan id="SvgjsTspan1022" dy="22" x="50"><tspan id="SvgjsTspan1023" style="text-decoration:;">指标</tspan></tspan></text></g></g><g id="SvgjsG1024" transform="translate(315,65)"><path id="SvgjsPath1025" d="M 0 0L 100 0L 100 70L 0 70Z" stroke="none" fill-opacity="1" fill="#999900"></path><g id="SvgjsG1026"><text id="SvgjsText1027" font-family="黑体" text-anchor="middle" font-size="18px" width="80px" fill="#ffffff" font-weight="700" align="middle" anchor="middle" family="黑体" size="18px" weight="700" font-style="" opacity="1" y="20.8" transform="rotate(0)"><tspan id="SvgjsTspan1028" dy="22" x="50"><tspan id="SvgjsTspan1029" style="text-decoration:;">埋点</tspan></tspan></text></g></g><g id="SvgjsG1030" transform="translate(25,25)"><path id="SvgjsPath1031" d="M 0 0L 120 0L 120 40L 0 40Z" stroke="none" fill="none"></path><g id="SvgjsG1032"><text id="SvgjsText1033" font-family="微软雅黑" text-anchor="middle" font-size="15px" width="120px" fill="#666600" font-weight="700" align="middle" anchor="middle" family="微软雅黑" size="15px" weight="700" font-style="" opacity="1" y="8.25" transform="rotate(0)"><tspan id="SvgjsTspan1034" dy="18" x="60"><tspan id="SvgjsTspan1035" style="text-decoration:;">归纳分析</tspan></tspan></text></g></g><g id="SvgjsG1036" transform="translate(165,25)"><path id="SvgjsPath1037" d="M 0 0L 120 0L 120 40L 0 40Z" stroke="none" fill="none"></path><g id="SvgjsG1038"><text id="SvgjsText1039" font-family="微软雅黑" text-anchor="middle" font-size="15px" width="120px" fill="#666600" font-weight="700" align="middle" anchor="middle" family="微软雅黑" size="15px" weight="700" font-style="" opacity="1" y="8.25" transform="rotate(0)"><tspan id="SvgjsTspan1040" dy="18" x="60"><tspan id="SvgjsTspan1041" style="text-decoration:;">选取衡量</tspan></tspan></text></g></g><g id="SvgjsG1042" transform="translate(305,25)"><path id="SvgjsPath1043" d="M 0 0L 120 0L 120 40L 0 40Z" stroke="none" fill="none"></path><g id="SvgjsG1044"><text id="SvgjsText1045" font-family="微软雅黑" text-anchor="middle" font-size="15px" width="120px" fill="#666600" font-weight="700" align="middle" anchor="middle" family="微软雅黑" size="15px" weight="700" font-style="" opacity="1" y="8.25" transform="rotate(0)"><tspan id="SvgjsTspan1046" dy="18" x="60"><tspan id="SvgjsTspan1047" style="text-decoration:;">拆解梳理</tspan></tspan></text></g></g><g id="SvgjsG1048" transform="translate(285,75.5)"><path id="SvgjsPath1049" d="M 0 16.17L 11 16.17L 11 0L 20 24.5L 11 49L 11 32.830000000000005L 0 32.830000000000005L 0 16.17Z" stroke="none" fill-opacity="1" fill="#ff8000"></path><g id="SvgjsG1050"><text id="SvgjsText1051" font-family="微软雅黑" text-anchor="middle" font-size="13px" width="20px" fill="#323232" font-weight="400" align="middle" anchor="middle" family="微软雅黑" size="13px" weight="400" font-style="" opacity="1" y="14.55" transform="rotate(0)"></text></g></g></svg>